<svg width="24" height="24" viewBox="0 0 24 24" fill="none" xmlns="http://www.w3.org/2000/svg">
<path d="M15.7788 7.02896C16.1104 6.95353 16.4623 7.05234 16.7075 7.29752C16.9529 7.54307 17.051 7.89535 16.9751 8.2272L16.9321 8.36685L14.689 14.1305C14.5872 14.3917 14.3799 14.5983 14.1187 14.6999L8.36279 16.9362C7.99333 17.0796 7.5737 16.9918 7.29346 16.7116C7.01335 16.4312 6.92526 16.0116 7.06885 15.6422L9.31201 9.87857L9.35498 9.78287C9.46621 9.56696 9.65375 9.39811 9.88232 9.30923L15.6382 7.07291L15.7788 7.02896ZM11.2524 10.9206L13.0796 12.7477L14.2437 9.75943L11.2524 10.9206Z" fill="currentColor"/>
<path d="M12.0005 21.5C17.2472 21.5 21.5005 17.2467 21.5005 12C21.5005 6.75329 17.2472 2.5 12.0005 2.5C6.75378 2.5 2.50049 6.75329 2.50049 12C2.50049 17.2467 6.75378 21.5 12.0005 21.5Z" stroke="currentColor" stroke-width="2" stroke-linecap="round" stroke-linejoin="round"/>
</svg>
